{"title":"Citizenfour (2014) HDTV x265 10bit {TheSpider}","uid":14567995,"size":384538810,"categoryP":"video","categoryS":"movies","magnet":"?xt=urn:btih:087c79eb1b11c23b7d0c122a0efa5d66203c5b7a&amp;dn=Citizenfour+%282014%29+HDTV+x265+10bit+%7BTheSpider%7D&amp;tr=udp%3A%2F%2Ftracker.leechers-paradise.org%3A6969&amp;tr=udp%3A%2F%2Fzer0day.ch%3A1337&amp;tr=udp%3A%2F%2Fopen.demonii.com%3A1337&amp;tr=udp%3A%2F%2Ftracker.coppersurfer.tk%3A6969&amp;tr=udp%3A%2F%2Fexodus.desync.com%3A6969","seeders":0,"leechers":0,"uploader":"ripthejacker420","files":1,"time":1462772097,"description":"I'm also an uploader from KAT &amp;\nEncodes tagged by: {TheSpider} are encoded by me =)\r\n\r\nSeedbox![:Qpirate] Enjoy! (Please pay attention to info hash below) [:Qpirate][:Qtongue] \r\nI appreciate any and all constructive criticism. i'm trying to get better so don't be afraid to let me know your thoughts.\r\nI do mostly x265 encodes so if you're looking for high quality, low size, 480p x264 encodes, I highly recommend VYTOP2PDL.\r\n\r\n[color=&quot;red&quot;]Info Hash[/color]: 087C79EB1B11C23B7D0C122A0EFA5D66203C5B7A [:Qtongue]\r\n\r\n[color=&quot;green&quot;]Encoder[/color]: [color=&quot;green&quot;]TheSpider008[/color][:Qpirate]\r\nContainer: MKV \r\nFile Size: 367MB\r\nResolution: 720x400 \r\nDuration: 01hr 53m 37sec \r\nSource: Citizenfour.2014.HDTV.x264-BATV[ettv] (Thank You!)\r\nLanguage: English \r\nSubtitles: English (Softcoded) [SRT also included]\r\n\r\n\r\n\r\n\r\n[color=&quot;blue&quot;]General[/color]\r\n----------------------------------------\r\nFormat : Matroska\r\nFormat version : Version 4 / Version 2\r\nFile size : 367 MiB\r\nDuration : 1h 53mn\r\nOverall bit rate : 451 Kbps\r\nMovie name : Citizenfour (2014) HDTV x265 {TheSpider}\r\nEncoded date : UTC 2016-03-07 16:35:36\r\n\r\n[color=&quot;blue&quot;]Video[/color]\r\n----------------------------------------\r\nID : 1\r\nFormat : HEVC\r\nFormat/Info : High Efficiency Video Coding\r\nFormat profile : Main   @Main\r\nCodec ID : V_MPEGH/ISO/HEVC\r\nDuration : 1h 53mn\r\nBit rate : 319 Kbps\r\nWidth : 720 pixels\r\nHeight : 400 pixels\r\nDisplay aspect ratio : 16:9\r\nFrame rate mode : Constant\r\nFrame rate : 23.976 (24000/1001) fps\r\nColor space : YUV\r\nChroma subsampling : 4:2:0\r\nBit depth : 10 bits\r\nBits/(Pixel*Frame) : 0.046\r\nStream size : 259 MiB (71%)\r\nTitle : Citizenfour (2014)\r\nLanguage : English\r\nDefault : Yes\r\nForced : No\r\n\r\n[color=&quot;blue&quot;]*Audio*[/color]\r\n----------------------------------------\r\nID : 2\r\nFormat : AAC\r\nFormat/Info : Advanced Audio Codec\r\nFormat profile : LC\r\nCodec ID : A_AAC\r\nDuration : 1h 53mn\r\nBit rate : 132 Kbps\r\nChannel(s) : 2 channels\r\nChannel positions : Front: L R\r\nSampling rate : 48.0 KHz\r\nFrame rate : 46.875 fps (1024 spf)\r\nCompression mode : Lossy\r\nStream size : 106 MiB (29%)\r\nLanguage : English\r\nDefault : Yes\r\nForced : No\r\n\r\n[color=&quot;blue&quot;]*Text*[/color]\r\n----------------------------------------\r\nID : 3\r\nFormat : UTF-8\r\nCodec ID : S_TEXT/UTF8\r\nCodec ID/Info : UTF-8 Plain Text\r\nDuration : 1h 50mn\r\nBit rate : 94 bps\r\nCount of elements : 1953\r\nStream size : 76.6 KiB (0%)\r\nLanguage : English\r\nDefault : No\r\nForced : No","torrent":{"xt":"urn:btih:087c79eb1b11c23b7d0c122a0efa5d66203c5b7a","amp;dn":"Citizenfour+%282014%29+HDTV+x265+10bit+%7BTheSpider%7D","amp;tr":["udp%3A%2F%2Ftracker.leechers-paradise.org%3A6969","udp%3A%2F%2Fzer0day.ch%3A1337","udp%3A%2F%2Fopen.demonii.com%3A1337","udp%3A%2F%2Ftracker.coppersurfer.tk%3A6969","udp%3A%2F%2Fexodus.desync.com%3A6969"],"infoHash":"087c79eb1b11c23b7d0c122a0efa5d66203c5b7a","infoHashBuffer":{"type":"Buffer","data":[8,124,121,235,27,17,194,59,125,12,18,42,14,250,93,102,32,60,91,122]},"announce":[],"urlList":[]}}